<svg width="1215" height="803" viewBox="0 0 1215 803" fill="none" xmlns="http://www.w3.org/2000/svg">
<g filter="url(#filter0_d)">
<path fill-rule="evenodd" clip-rule="evenodd" d="M117.758 271.399C81.5184 271.399 63.3703 315.215 88.9965 340.839L223.28 475.113C242.034 493.865 267.468 504.399 293.988 504.399H364.681C391.201 504.399 416.635 514.934 435.389 533.686L596.428 694.713C615.182 713.465 640.616 724 667.136 724H1055.99C1128.52 724 1164.85 636.302 1113.56 585.015L1027.16 498.63C1007.75 479.22 1021.5 446.03 1048.95 446.03C1076.4 446.03 1090.15 412.841 1070.74 393.431L875.402 198.111C856.648 179.359 831.214 168.824 804.694 168.824H570.252C543.731 168.824 518.297 158.289 499.544 139.537L464.291 104.287C445.537 85.5346 420.103 75 393.583 75H158.432C107.183 75 81.5184 136.963 117.758 173.199L146.52 201.959C172.146 227.583 153.998 271.399 117.758 271.399Z" fill="#2D314D"/>
</g>
<defs>
<filter id="filter0_d" x="0" y="0" width="1214.57" height="803" filterUnits="userSpaceOnUse" color-interpolation-filters="sRGB">
<feFlood flood-opacity="0" result="BackgroundImageFix"/>
<feColorMatrix in="SourceAlpha" type="matrix" values="0 0 0 0 0 0 0 0 0 0 0 0 0 0 0 0 0 0 127 0"/>
<feOffset dy="2"/>
<feGaussianBlur stdDeviation="38.5"/>
<feColorMatrix type="matrix" values="0 0 0 0 0 0 0 0 0 0 0 0 0 0 0 0 0 0 0.0240111 0"/>
<feBlend mode="normal" in2="BackgroundImageFix" result="effect1_dropShadow"/>
<feBlend mode="normal" in="SourceGraphic" in2="effect1_dropShadow" result="shape"/>
</filter>
</defs>
</svg>
