<svg width="1385" height="1025" viewBox="0 0 1385 1025" fill="none" xmlns="http://www.w3.org/2000/svg">
<g filter="url(#filter0_d)">
<path fill-rule="evenodd" clip-rule="evenodd" d="M118.207 493.399C81.9673 493.399 63.8192 537.215 89.4455 562.839L223.729 697.113C242.483 715.865 267.917 726.399 294.437 726.399H365.13C391.65 726.399 417.084 736.934 435.838 755.686L596.877 916.713C615.631 935.465 641.065 946 667.585 946H1056.44C1128.97 946 1165.3 858.302 1114 807.015L1027.61 720.63C1008.2 701.22 1021.95 668.03 1049.4 668.03V668.03C1076.85 668.03 1090.6 634.841 1071.19 615.431L875.851 420.111C857.097 401.359 831.663 390.824 805.143 390.824H570.701C544.18 390.824 518.746 380.289 499.993 361.537L464.74 326.287C445.986 307.535 420.552 297 394.032 297H158.88C107.632 297 81.9673 358.963 118.207 395.199L146.968 423.959C172.595 449.583 154.447 493.399 118.207 493.399V493.399Z" fill="#2D314D"/>
</g>
<path fill-rule="evenodd" clip-rule="evenodd" d="M250.207 196.399C213.967 196.399 195.819 240.215 221.445 265.839L355.729 400.113C374.483 418.865 399.917 429.399 426.437 429.399H497.13C523.65 429.399 549.084 439.934 567.838 458.686L728.877 619.713C747.631 638.465 773.065 649 799.585 649H1188.44C1260.97 649 1297.3 561.302 1246 510.015L1159.61 423.63C1140.2 404.22 1153.95 371.03 1181.4 371.03V371.03C1208.85 371.03 1222.6 337.841 1203.19 318.431L1007.85 123.111C989.097 104.359 963.663 93.8239 937.143 93.8239H702.701C676.18 93.8239 650.746 83.2892 631.993 64.5372L596.74 29.2866C577.986 10.5346 552.552 0 526.032 0H290.88C239.632 0 213.967 61.9626 250.207 98.1995L278.968 126.959C304.595 152.583 286.447 196.399 250.207 196.399V196.399Z" fill="url(#paint0_linear)"/>
<defs>
<filter id="filter0_d" x="0.448975" y="222" width="1214.57" height="803" filterUnits="userSpaceOnUse" color-interpolation-filters="sRGB">
<feFlood flood-opacity="0" result="BackgroundImageFix"/>
<feColorMatrix in="SourceAlpha" type="matrix" values="0 0 0 0 0 0 0 0 0 0 0 0 0 0 0 0 0 0 127 0"/>
<feOffset dy="2"/>
<feGaussianBlur stdDeviation="38.5"/>
<feColorMatrix type="matrix" values="0 0 0 0 0 0 0 0 0 0 0 0 0 0 0 0 0 0 0.0240111 0"/>
<feBlend mode="normal" in2="BackgroundImageFix" result="effect1_dropShadow"/>
<feBlend mode="normal" in="SourceGraphic" in2="effect1_dropShadow" result="shape"/>
</filter>
<linearGradient id="paint0_linear" x1="-461.913" y1="323.138" x2="70.8341" y2="1335.28" gradientUnits="userSpaceOnUse">
<stop stop-color="#33D35E"/>
<stop offset="1" stop-color="#2AB6D9"/>
</linearGradient>
</defs>
</svg>
