<svg width="1061" height="649" viewBox="0 0 1061 649" fill="none" xmlns="http://www.w3.org/2000/svg">
<path fill-rule="evenodd" clip-rule="evenodd" d="M40.758 196.399C4.51839 196.399 -13.6297 240.215 11.9965 265.839L146.28 400.113C165.034 418.865 190.468 429.399 216.988 429.399H287.681C314.201 429.399 339.635 439.934 358.389 458.686L519.428 619.713C538.182 638.465 563.616 649 590.136 649H978.99C1051.52 649 1087.85 561.302 1036.56 510.015L950.164 423.63C930.753 404.22 944.5 371.03 971.951 371.03C999.401 371.03 1013.15 337.841 993.737 318.431L798.402 123.111C779.648 104.359 754.214 93.8239 727.694 93.8239H493.252C466.731 93.8239 441.297 83.2892 422.544 64.5372L387.291 29.2866C368.537 10.5346 343.103 0 316.583 0H81.4315C30.1829 0 4.51839 61.9626 40.758 98.1995L69.5195 126.959C95.1458 152.583 76.9976 196.399 40.758 196.399Z" fill="url(#paint0_linear)"/>
<defs>
<linearGradient id="paint0_linear" x1="-671.362" y1="323.138" x2="-138.615" y2="1335.28" gradientUnits="userSpaceOnUse">
<stop stop-color="#33D35E"/>
<stop offset="1" stop-color="#2AB6D9"/>
</linearGradient>
</defs>
</svg>
